HIERARCHY
ROOT pelvis
{
  OFFSET 0 100 0
  CHANNELS 6 Xposition Yposition Zposition Zrotation Xrotation Yrotation
  JOINT pelvis_right_femur
  {
    OFFSET -10.78128 -3.44521 -0.5502486
    CHANNELS 3 Zrotation Xrotation Yrotation
    JOINT right_femur_tibia
    {
      OFFSET -0.8047443 -44.0398 -0.1307829
      CHANNELS 3 Zrotation Xrotation Yrotation
      JOINT right_tibia_foot
      {
        OFFSET 3.006224 -47.83518 -5
        CHANNELS 3 Zrotation Xrotation Yrotation
        End Site
        {
          OFFSET 0 -5 15
        }
      }
    }
  }
  JOINT pelvis_left_femur
  {
    OFFSET 10.78128 -3.44521 -0.5502486
    CHANNELS 3 Zrotation Xrotation Yrotation
    JOINT left_femur_tibia
    {
      OFFSET 0.8047443 -44.0398 -0.1307829
      CHANNELS 3 Zrotation Xrotation Yrotation
      JOINT left_tibia_foot
      {
        OFFSET -4.370144 -48.10324 -4.275266
        CHANNELS 3 Zrotation Xrotation Yrotation
        End Site
        {
          OFFSET 0 -5 15
        }
      }
    }
  }
  JOINT pelvis_spine1
  {
    OFFSET 0 6.468898 -3.129235
    CHANNELS 3 Zrotation Xrotation Yrotation
    JOINT spine1
    {
      OFFSET 0 23.15396 4.99043
      CHANNELS 3 Zrotation Xrotation Yrotation
      JOINT spine2
      {
        OFFSET 0 20.79997 -5.064912
        CHANNELS 3 Zrotation Xrotation Yrotation
        JOINT neck
        {
          OFFSET 0 14.38658 9.616178
          CHANNELS 3 Zrotation Xrotation Yrotation
          End Site
          {
            OFFSET 0 20 0
          }
        }
      }
      JOINT right_manubrium
      {
        OFFSET -5.722621 16.35077 3.967754
        CHANNELS 3 Zrotation Xrotation Yrotation
        JOINT right_clavicle
        {
          OFFSET -13.16364 1.694482 -4.693211
          CHANNELS 3 Zrotation Xrotation Yrotation
          JOINT right_humerus
          {
            OFFSET -28.5034 -0.3100689 -2.792744
            CHANNELS 3 Zrotation Xrotation Yrotation
            JOINT right_radius
            {
              OFFSET -25.15693 0.02248979 -1.271978
              CHANNELS 3 Zrotation Xrotation Yrotation
              End Site
              {
                OFFSET -15 0 0
              }
            }
          }
        }
      }
      JOINT left_manubrium
      {
        OFFSET 5.722621 16.35077 3.967754
        CHANNELS 3 Zrotation Xrotation Yrotation
        JOINT left_clavicle
        {
          OFFSET 13.16364 1.694482 -4.693211
          CHANNELS 3 Zrotation Xrotation Yrotation
          JOINT left_humerus
          {
            OFFSET 29.39168 -1.063119 -2.237045
            CHANNELS 3 Zrotation Xrotation Yrotation
            JOINT left_radius
            {
              OFFSET 24.59957 -0.9528479 0.9047498
              CHANNELS 3 Zrotation Xrotation Yrotation
              End Site
              {
                OFFSET 15 -0 -0
              }
            }
          }
        }
      }
    }
  }
}
MOTION
Frames: 7
Frame Time: 0.0416666666667
0 103.5113 0 0.5148918 -1.587088 0.03778161 3.506961 -16.25754 8.379067 -0 37.72783 -0 -7.038384 -16.23474 -4.501922 -6.145095 12.13823 -23.00602 -0 4.638628 -0 6.576704 -17.00211 25.19285 -2.34052 -3.453571 4.244998 2.250505 9.960467 -6.727307 1.748448 22.13933 6.727199 3.859998 -22.34743 8.963919 6.891867 -18.15759 11.98291 81.75989 30.1543 -16.32147 -0 0 16.84648 -10.98968 10.80709 5.385032 8.458663 -20.44002 -0.755779 -96.00972 22.6248 21.35625 0 0 -9.010705 15.47077 19.88455 -5.311991
0.1890698 103.4001 1.706375 0.4072722 -0.6349527 0.09872666 4.14338 -19.7932 8.80867 -0 36.37867 -0 -6.094339 -15.44287 -4.281153 -6.276302 12.93907 -22.96354 -0 4.88878 -0 6.357033 -18.42057 24.98453 -2.3334 -3.25314 4.22352 2.395204 9.792611 -6.882357 1.689331 21.91489 6.832867 3.796559 -22.86744 9.110665 6.681345 -18.10104 11.86083 82.25567 30.98112 -16.63252 -0 0 16.22706 -10.49817 10.56366 5.32374 8.353536 -20.53789 -0.6429202 -95.16351 22.4161 20.6922 0 0 -10.52904 15.55235 18.95014 -5.186942
0.3902134 103.1247 3.626654 0.09972538 0.05765397 0.2074013 4.971259 -23.44181 8.277108 -0 33.21639 -0 -6.141688 -13.14361 -3.661741 -6.242681 13.59294 -22.206 -0 5.356531 -0 6.326008 -19.79746 24.41417 -2.273742 -3.117436 4.275679 2.530449 9.673158 -7.082475 1.62799 21.57984 6.953196 3.737756 -23.56162 9.308847 6.507023 -18.21871 11.75516 82.9144 31.91781 -17.22261 -0 0 15.86524 -9.739907 10.27477 5.096874 8.217189 -20.61761 -0.5626873 -94.56959 22.44202 20.49058 0 0 -12.20344 15.262 18.04651 -4.545341
0.6065609 102.7219 5.830988 -0.1860835 1.015857 0.3767486 5.736388 -26.84763 8.031745 -0 29.97872 -0 -5.766091 -11.47492 -3.159815 -6.194342 14.00464 -21.41261 -0 6.036014 -0 5.803009 -21.02631 23.46672 -2.238632 -2.947755 4.277801 2.672261 9.558739 -7.272847 1.563784 21.30453 7.056793 3.680152 -24.13101 9.453189 6.317626 -18.23296 11.65466 83.53787 32.75352 -17.72115 -0 0 15.3317 -9.195406 10.06047 4.998404 8.083713 -20.73476 -0.4979879 -93.81833 22.31787 20.02263 0 0 -13.79382 15.13803 17.12998 -4.148781
0.8370752 102.1987 8.423622 -0.5142852 2.057405 0.616638 6.489318 -29.93733 7.772852 -0 26.44639 -0 -5.354064 -10.02065 -2.709541 -6.072318 14.26807 -20.44623 -0 7.191279 -0 4.8446 -22.00089 22.05668 -2.198875 -2.780446 4.276977 2.812428 9.469333 -7.472242 1.49604 21.02817 7.156755 3.62786 -24.6859 9.580671 6.135727 -18.24782 11.56568 84.20355 33.56525 -18.27069 -0 0 14.78768 -8.691518 9.874785 4.920557 7.93668 -20.86544 -0.4604436 -93.07953 22.2024 19.58078 0 0 -15.37152 14.95439 16.22346 -3.683748
1.076579 101.5824 11.48524 -0.8747493 2.980634 0.9246346 7.150421 -32.31558 7.399633 -0 23.00677 -0 -5.11917 -8.748357 -2.335869 -5.869289 14.42391 -19.36295 -0 8.977166 -0 3.568364 -22.50955 20.29153 -2.169784 -2.603421 4.251265 2.946389 9.404108 -7.662774 1.42633 20.79429 7.244337 3.584664 -25.14789 9.663848 5.967759 -18.2122 11.49206 84.84731 34.28869 -18.78795 -0 0 14.18318 -8.335769 9.74877 4.918198 7.780952 -21.00723 -0.4557962 -92.33378 22.06055 19.0818 0 0 -16.80886 14.75886 15.36502 -3.242102
1.314944 100.928 15.07264 -1.262938 3.617971 1.287967 7.684603 -33.73204 6.863117 -0 20.01218 -0 -5.210764 -7.733695 -2.087195 -5.568918 14.53534 -18.22697 -0 11.63008 -0 2.040051 -22.38995 18.25329 -2.14759 -2.422473 4.209367 3.068466 9.369127 -7.84133 1.354496 20.60093 7.322147 3.554488 -25.52526 9.705012 5.821475 -18.1413 11.43723 85.46862 34.92618 -19.28198 -0 0 13.54989 -8.115881 9.67364 4.97965 7.612537 -21.15001 -0.4896945 -91.6301 21.93219 18.59176 0 0 -18.0782 14.49776 14.57288 -2.7575
